<mxfile host="app.diagrams.net" modified="2022-12-14T02:52:56.094Z" agent="5.0 (Windows NT 10.0; Win64; x64) AppleWebKit/537.36 (KHTML, like Gecko) Chrome/107.0.0.0 Safari/537.36" version="20.6.0" etag="WLbC2_xIbsdvhTIEs7Wg" type="github" pages="2">
  <diagram id="TbDEX9xW6UQDXxYtpqDP" name="订单导入">
    <mxGraphModel dx="1390" dy="602" grid="1" gridSize="10" guides="1" tooltips="1" connect="1" arrows="1" fold="1" page="1" pageScale="1" pageWidth="827" pageHeight="1169" math="0" shadow="0">
      <root>
        <mxCell id="0" />
        <mxCell id="1" parent="0" />
        <mxCell id="iaJMB6_S7v5ycFKHqSS--22" value="" style="edgeStyle=orthogonalEdgeStyle;rounded=0;orthogonalLoop=1;jettySize=auto;html=1;" edge="1" parent="1" source="iaJMB6_S7v5ycFKHqSS--1" target="iaJMB6_S7v5ycFKHqSS--5">
          <mxGeometry relative="1" as="geometry" />
        </mxCell>
        <mxCell id="iaJMB6_S7v5ycFKHqSS--1" value="开始" style="rounded=1;whiteSpace=wrap;html=1;" vertex="1" parent="1">
          <mxGeometry x="100" y="50" width="110" height="40" as="geometry" />
        </mxCell>
        <mxCell id="iaJMB6_S7v5ycFKHqSS--2" value="&lt;pre style=&quot;background-color: rgb(255, 255, 255); font-family: &amp;quot;Courier New&amp;quot;; font-size: 9pt;&quot;&gt;/order/sale&lt;span style=&quot;color:#008000;font-weight:bold;&quot;&gt;/import&lt;/span&gt;&lt;/pre&gt;" style="text;html=1;strokeColor=none;fillColor=none;align=center;verticalAlign=middle;whiteSpace=wrap;rounded=0;" vertex="1" parent="1">
          <mxGeometry x="230" y="10" width="130" height="30" as="geometry" />
        </mxCell>
        <mxCell id="iaJMB6_S7v5ycFKHqSS--3" value="retailer" style="text;html=1;strokeColor=none;fillColor=none;align=center;verticalAlign=middle;whiteSpace=wrap;rounded=0;" vertex="1" parent="1">
          <mxGeometry x="20" y="10" width="60" height="30" as="geometry" />
        </mxCell>
        <mxCell id="iaJMB6_S7v5ycFKHqSS--4" value="从请求头获取token" style="rounded=0;whiteSpace=wrap;html=1;" vertex="1" parent="1">
          <mxGeometry x="95" y="120" width="120" height="40" as="geometry" />
        </mxCell>
        <mxCell id="iaJMB6_S7v5ycFKHqSS--23" value="" style="edgeStyle=orthogonalEdgeStyle;rounded=0;orthogonalLoop=1;jettySize=auto;html=1;" edge="1" parent="1" source="iaJMB6_S7v5ycFKHqSS--5" target="iaJMB6_S7v5ycFKHqSS--7">
          <mxGeometry relative="1" as="geometry" />
        </mxCell>
        <mxCell id="iaJMB6_S7v5ycFKHqSS--5" value="创建通用的订单任务" style="rounded=0;whiteSpace=wrap;html=1;" vertex="1" parent="1">
          <mxGeometry x="95" y="200" width="120" height="40" as="geometry" />
        </mxCell>
        <mxCell id="iaJMB6_S7v5ycFKHqSS--25" value="" style="edgeStyle=orthogonalEdgeStyle;rounded=0;orthogonalLoop=1;jettySize=auto;html=1;" edge="1" parent="1" source="iaJMB6_S7v5ycFKHqSS--7" target="iaJMB6_S7v5ycFKHqSS--9">
          <mxGeometry relative="1" as="geometry" />
        </mxCell>
        <mxCell id="iaJMB6_S7v5ycFKHqSS--7" value="参数校验" style="rounded=0;whiteSpace=wrap;html=1;" vertex="1" parent="1">
          <mxGeometry x="280" y="200" width="120" height="40" as="geometry" />
        </mxCell>
        <mxCell id="iaJMB6_S7v5ycFKHqSS--8" value="文件名称&lt;br&gt;大小（5M）&lt;br&gt;是否勾选了月结卡号&lt;br&gt;是否校验原始订单号" style="text;html=1;strokeColor=none;fillColor=none;align=left;verticalAlign=middle;whiteSpace=wrap;rounded=0;" vertex="1" parent="1">
          <mxGeometry x="440" y="160" width="220" height="100" as="geometry" />
        </mxCell>
        <mxCell id="iaJMB6_S7v5ycFKHqSS--26" value="" style="edgeStyle=orthogonalEdgeStyle;rounded=0;orthogonalLoop=1;jettySize=auto;html=1;" edge="1" parent="1" source="iaJMB6_S7v5ycFKHqSS--9" target="iaJMB6_S7v5ycFKHqSS--12">
          <mxGeometry relative="1" as="geometry" />
        </mxCell>
        <mxCell id="iaJMB6_S7v5ycFKHqSS--9" value="构建任务参数" style="rounded=0;whiteSpace=wrap;html=1;" vertex="1" parent="1">
          <mxGeometry x="280" y="270" width="120" height="40" as="geometry" />
        </mxCell>
        <mxCell id="iaJMB6_S7v5ycFKHqSS--10" value="importKey&amp;nbsp; &amp;nbsp;商户:组织:order:import&lt;br&gt;expire: 5min" style="text;html=1;strokeColor=none;fillColor=none;align=left;verticalAlign=middle;whiteSpace=wrap;rounded=0;" vertex="1" parent="1">
          <mxGeometry x="360" y="330" width="300" height="30" as="geometry" />
        </mxCell>
        <mxCell id="iaJMB6_S7v5ycFKHqSS--27" value="" style="edgeStyle=orthogonalEdgeStyle;rounded=0;orthogonalLoop=1;jettySize=auto;html=1;" edge="1" parent="1" source="iaJMB6_S7v5ycFKHqSS--12" target="iaJMB6_S7v5ycFKHqSS--14">
          <mxGeometry relative="1" as="geometry" />
        </mxCell>
        <mxCell id="iaJMB6_S7v5ycFKHqSS--30" style="edgeStyle=orthogonalEdgeStyle;rounded=0;orthogonalLoop=1;jettySize=auto;html=1;entryX=0.5;entryY=0;entryDx=0;entryDy=0;" edge="1" parent="1" source="iaJMB6_S7v5ycFKHqSS--12" target="iaJMB6_S7v5ycFKHqSS--13">
          <mxGeometry relative="1" as="geometry" />
        </mxCell>
        <mxCell id="iaJMB6_S7v5ycFKHqSS--12" value="是否有正在运行的任务" style="rhombus;whiteSpace=wrap;html=1;" vertex="1" parent="1">
          <mxGeometry x="300" y="370" width="80" height="80" as="geometry" />
        </mxCell>
        <mxCell id="iaJMB6_S7v5ycFKHqSS--13" value="结束" style="rounded=1;whiteSpace=wrap;html=1;" vertex="1" parent="1">
          <mxGeometry x="80" y="675" width="110" height="40" as="geometry" />
        </mxCell>
        <mxCell id="iaJMB6_S7v5ycFKHqSS--28" value="" style="edgeStyle=orthogonalEdgeStyle;rounded=0;orthogonalLoop=1;jettySize=auto;html=1;" edge="1" parent="1" source="iaJMB6_S7v5ycFKHqSS--14" target="iaJMB6_S7v5ycFKHqSS--15">
          <mxGeometry relative="1" as="geometry" />
        </mxCell>
        <mxCell id="iaJMB6_S7v5ycFKHqSS--14" value="文件上传到OBS" style="rounded=0;whiteSpace=wrap;html=1;" vertex="1" parent="1">
          <mxGeometry x="280" y="500" width="120" height="40" as="geometry" />
        </mxCell>
        <mxCell id="iaJMB6_S7v5ycFKHqSS--29" value="" style="edgeStyle=orthogonalEdgeStyle;rounded=0;orthogonalLoop=1;jettySize=auto;html=1;" edge="1" parent="1" source="iaJMB6_S7v5ycFKHqSS--15" target="iaJMB6_S7v5ycFKHqSS--21">
          <mxGeometry relative="1" as="geometry" />
        </mxCell>
        <mxCell id="iaJMB6_S7v5ycFKHqSS--15" value="设置用户上次导入的月结" style="rounded=0;whiteSpace=wrap;html=1;" vertex="1" parent="1">
          <mxGeometry x="280" y="585" width="120" height="40" as="geometry" />
        </mxCell>
        <mxCell id="iaJMB6_S7v5ycFKHqSS--17" value="&lt;span style=&quot;color: rgba(0, 0, 0, 0); font-family: monospace; font-size: 0px; text-align: start;&quot;&gt;%3CmxGraphModel%3E%3Croot%3E%3CmxCell%20id%3D%220%22%2F%3E%3CmxCell%20id%3D%221%22%20parent%3D%220%22%2F%3E%3CmxCell%20id%3D%222%22%20value%3D%22%E6%96%87%E4%BB%B6%E4%B8%8A%E4%BC%A0%E5%88%B0OBS%22%20style%3D%22rounded%3D0%3BwhiteSpace%3Dwrap%3Bhtml%3D1%3B%22%20vertex%3D%221%22%20parent%3D%221%22%3E%3CmxGeometry%20x%3D%22280%22%20y%3D%22500%22%20width%3D%22120%22%20height%3D%2240%22%20as%3D%22geometry%22%2F%3E%3C%2FmxCell%3E%3C%2Froot%3E%3C%2FmxGraphModel%3E&lt;/span&gt;" style="text;html=1;strokeColor=none;fillColor=none;align=center;verticalAlign=middle;whiteSpace=wrap;rounded=0;" vertex="1" parent="1">
          <mxGeometry x="450" y="595" width="60" height="30" as="geometry" />
        </mxCell>
        <mxCell id="iaJMB6_S7v5ycFKHqSS--18" value="&lt;div style=&quot;text-align: left;&quot;&gt;&lt;span style=&quot;background-color: initial;&quot;&gt;redisKey :&amp;nbsp;&lt;/span&gt;&lt;span style=&quot;font-size: 9pt; color: rgb(0, 128, 0); font-weight: bold; background-color: rgb(255, 255, 255); font-family: &amp;quot;Courier New&amp;quot;;&quot;&gt;user:last-import-monthlyCard:用户Id&lt;/span&gt;&lt;/div&gt;&lt;span style=&quot;color: rgb(0, 128, 0); font-weight: bold; background-color: rgb(255, 255, 255); font-family: &amp;quot;Courier New&amp;quot;; font-size: 9pt;&quot;&gt;&lt;div style=&quot;text-align: left;&quot;&gt;&lt;span style=&quot;font-size: 9pt;&quot;&gt;expire: 15Day&lt;/span&gt;&lt;/div&gt;&lt;/span&gt;" style="text;html=1;strokeColor=none;fillColor=none;align=center;verticalAlign=middle;whiteSpace=wrap;rounded=0;" vertex="1" parent="1">
          <mxGeometry x="420" y="590" width="310" height="30" as="geometry" />
        </mxCell>
        <mxCell id="iaJMB6_S7v5ycFKHqSS--19" value="&lt;font face=&quot;Courier New&quot; color=&quot;#008000&quot;&gt;&lt;span style=&quot;&quot;&gt;&lt;b&gt;manager模块&lt;/b&gt;&lt;/span&gt;&lt;/font&gt;&lt;span style=&quot;color: rgb(0, 128, 0); font-weight: bold; background-color: rgb(255, 255, 255); font-family: &amp;quot;Courier New&amp;quot;; font-size: 9pt;&quot;&gt;/inner/manager/task/submit&lt;/span&gt;&lt;font face=&quot;Courier New&quot; color=&quot;#008000&quot;&gt;&lt;span style=&quot;&quot;&gt;&lt;b&gt;&lt;br&gt;&lt;/b&gt;&lt;/span&gt;&lt;/font&gt;" style="text;html=1;strokeColor=none;fillColor=none;align=left;verticalAlign=middle;whiteSpace=wrap;rounded=0;" vertex="1" parent="1">
          <mxGeometry x="420" y="680" width="310" height="30" as="geometry" />
        </mxCell>
        <mxCell id="iaJMB6_S7v5ycFKHqSS--31" value="" style="edgeStyle=orthogonalEdgeStyle;rounded=0;orthogonalLoop=1;jettySize=auto;html=1;" edge="1" parent="1" source="iaJMB6_S7v5ycFKHqSS--21" target="iaJMB6_S7v5ycFKHqSS--13">
          <mxGeometry relative="1" as="geometry" />
        </mxCell>
        <mxCell id="iaJMB6_S7v5ycFKHqSS--21" value="提交任务" style="rounded=0;whiteSpace=wrap;html=1;" vertex="1" parent="1">
          <mxGeometry x="280" y="675" width="120" height="40" as="geometry" />
        </mxCell>
        <mxCell id="iaJMB6_S7v5ycFKHqSS--32" value="是，返回失败，提示正在导入" style="text;html=1;strokeColor=none;fillColor=none;align=center;verticalAlign=middle;whiteSpace=wrap;rounded=0;" vertex="1" parent="1">
          <mxGeometry x="140" y="370" width="130" height="30" as="geometry" />
        </mxCell>
        <mxCell id="iaJMB6_S7v5ycFKHqSS--33" value="否" style="text;html=1;strokeColor=none;fillColor=none;align=center;verticalAlign=middle;whiteSpace=wrap;rounded=0;" vertex="1" parent="1">
          <mxGeometry x="340" y="460" width="60" height="30" as="geometry" />
        </mxCell>
        <UserObject label="任务处理com.sf.ms.orsp.manager.controller.InnerLongtimeTaskController#&lt;span style=&quot;background-color: rgb(255, 255, 255); font-family: &amp;quot;Courier New&amp;quot;; font-size: 9pt;&quot;&gt;submitTask&lt;/span&gt;" id="iaJMB6_S7v5ycFKHqSS--34">
          <mxCell style="text;whiteSpace=wrap;html=1;" vertex="1" parent="1">
            <mxGeometry x="20" y="770" width="430" height="50" as="geometry" />
          </mxCell>
        </UserObject>
        <mxCell id="iaJMB6_S7v5ycFKHqSS--48" value="" style="edgeStyle=orthogonalEdgeStyle;rounded=0;orthogonalLoop=1;jettySize=auto;html=1;" edge="1" parent="1" source="iaJMB6_S7v5ycFKHqSS--35" target="iaJMB6_S7v5ycFKHqSS--36">
          <mxGeometry relative="1" as="geometry" />
        </mxCell>
        <mxCell id="iaJMB6_S7v5ycFKHqSS--35" value="开始" style="rounded=1;whiteSpace=wrap;html=1;" vertex="1" parent="1">
          <mxGeometry x="80" y="850" width="110" height="40" as="geometry" />
        </mxCell>
        <mxCell id="iaJMB6_S7v5ycFKHqSS--47" value="" style="edgeStyle=orthogonalEdgeStyle;rounded=0;orthogonalLoop=1;jettySize=auto;html=1;" edge="1" parent="1" source="iaJMB6_S7v5ycFKHqSS--36" target="iaJMB6_S7v5ycFKHqSS--39">
          <mxGeometry relative="1" as="geometry" />
        </mxCell>
        <mxCell id="iaJMB6_S7v5ycFKHqSS--36" value="构建任务参数" style="rounded=0;whiteSpace=wrap;html=1;" vertex="1" parent="1">
          <mxGeometry x="75" y="940" width="120" height="40" as="geometry" />
        </mxCell>
        <mxCell id="iaJMB6_S7v5ycFKHqSS--37" value="记录上传后的对象key、文件名" style="text;html=1;strokeColor=none;fillColor=none;align=center;verticalAlign=middle;whiteSpace=wrap;rounded=0;" vertex="1" parent="1">
          <mxGeometry x="420" y="505" width="210" height="30" as="geometry" />
        </mxCell>
        <mxCell id="iaJMB6_S7v5ycFKHqSS--44" value="" style="edgeStyle=orthogonalEdgeStyle;rounded=0;orthogonalLoop=1;jettySize=auto;html=1;" edge="1" parent="1" source="iaJMB6_S7v5ycFKHqSS--39" target="iaJMB6_S7v5ycFKHqSS--41">
          <mxGeometry relative="1" as="geometry" />
        </mxCell>
        <mxCell id="iaJMB6_S7v5ycFKHqSS--46" value="" style="edgeStyle=orthogonalEdgeStyle;rounded=0;orthogonalLoop=1;jettySize=auto;html=1;" edge="1" parent="1" source="iaJMB6_S7v5ycFKHqSS--39" target="iaJMB6_S7v5ycFKHqSS--40">
          <mxGeometry relative="1" as="geometry" />
        </mxCell>
        <mxCell id="iaJMB6_S7v5ycFKHqSS--39" value="保存任务" style="rhombus;whiteSpace=wrap;html=1;" vertex="1" parent="1">
          <mxGeometry x="95" y="1040" width="80" height="80" as="geometry" />
        </mxCell>
        <mxCell id="iaJMB6_S7v5ycFKHqSS--54" value="" style="edgeStyle=orthogonalEdgeStyle;rounded=0;orthogonalLoop=1;jettySize=auto;html=1;" edge="1" parent="1" source="iaJMB6_S7v5ycFKHqSS--40" target="iaJMB6_S7v5ycFKHqSS--52">
          <mxGeometry relative="1" as="geometry" />
        </mxCell>
        <mxCell id="iaJMB6_S7v5ycFKHqSS--69" style="edgeStyle=orthogonalEdgeStyle;rounded=0;orthogonalLoop=1;jettySize=auto;html=1;entryX=0.5;entryY=1;entryDx=0;entryDy=0;entryPerimeter=0;" edge="1" parent="1" source="iaJMB6_S7v5ycFKHqSS--40" target="iaJMB6_S7v5ycFKHqSS--68">
          <mxGeometry relative="1" as="geometry" />
        </mxCell>
        <mxCell id="iaJMB6_S7v5ycFKHqSS--40" value="发送到kafka" style="rounded=0;whiteSpace=wrap;html=1;" vertex="1" parent="1">
          <mxGeometry x="240" y="1060" width="120" height="40" as="geometry" />
        </mxCell>
        <mxCell id="iaJMB6_S7v5ycFKHqSS--45" value="" style="edgeStyle=orthogonalEdgeStyle;rounded=0;orthogonalLoop=1;jettySize=auto;html=1;" edge="1" parent="1" source="iaJMB6_S7v5ycFKHqSS--41" target="iaJMB6_S7v5ycFKHqSS--42">
          <mxGeometry relative="1" as="geometry" />
        </mxCell>
        <mxCell id="iaJMB6_S7v5ycFKHqSS--41" value="redis移除导入key" style="rounded=0;whiteSpace=wrap;html=1;" vertex="1" parent="1">
          <mxGeometry x="75" y="1169" width="120" height="40" as="geometry" />
        </mxCell>
        <mxCell id="iaJMB6_S7v5ycFKHqSS--42" value="结束" style="rounded=1;whiteSpace=wrap;html=1;" vertex="1" parent="1">
          <mxGeometry x="80" y="1270" width="110" height="40" as="geometry" />
        </mxCell>
        <mxCell id="iaJMB6_S7v5ycFKHqSS--49" value="任务状态&lt;b&gt;待开始&lt;/b&gt;&lt;br&gt;商户、组织、token信息&lt;br&gt;记录完整请求参数等" style="text;html=1;strokeColor=none;fillColor=none;align=left;verticalAlign=middle;whiteSpace=wrap;rounded=0;" vertex="1" parent="1">
          <mxGeometry x="210" y="935" width="165" height="50" as="geometry" />
        </mxCell>
        <mxCell id="iaJMB6_S7v5ycFKHqSS--50" value="成功" style="text;html=1;strokeColor=none;fillColor=none;align=center;verticalAlign=middle;whiteSpace=wrap;rounded=0;" vertex="1" parent="1">
          <mxGeometry x="180" y="1050" width="35" height="30" as="geometry" />
        </mxCell>
        <mxCell id="iaJMB6_S7v5ycFKHqSS--51" value="失败" style="text;html=1;strokeColor=none;fillColor=none;align=center;verticalAlign=middle;whiteSpace=wrap;rounded=0;" vertex="1" parent="1">
          <mxGeometry x="90" y="1120" width="35" height="30" as="geometry" />
        </mxCell>
        <mxCell id="iaJMB6_S7v5ycFKHqSS--55" style="edgeStyle=orthogonalEdgeStyle;rounded=0;orthogonalLoop=1;jettySize=auto;html=1;entryX=1;entryY=0.5;entryDx=0;entryDy=0;exitX=0.5;exitY=1;exitDx=0;exitDy=0;" edge="1" parent="1" source="iaJMB6_S7v5ycFKHqSS--52" target="iaJMB6_S7v5ycFKHqSS--42">
          <mxGeometry relative="1" as="geometry" />
        </mxCell>
        <mxCell id="iaJMB6_S7v5ycFKHqSS--58" value="" style="edgeStyle=orthogonalEdgeStyle;rounded=0;orthogonalLoop=1;jettySize=auto;html=1;" edge="1" parent="1" source="iaJMB6_S7v5ycFKHqSS--52" target="iaJMB6_S7v5ycFKHqSS--57">
          <mxGeometry relative="1" as="geometry" />
        </mxCell>
        <mxCell id="iaJMB6_S7v5ycFKHqSS--52" value="成功？" style="rhombus;whiteSpace=wrap;html=1;" vertex="1" parent="1">
          <mxGeometry x="260" y="1149" width="80" height="80" as="geometry" />
        </mxCell>
        <mxCell id="iaJMB6_S7v5ycFKHqSS--59" style="edgeStyle=orthogonalEdgeStyle;rounded=0;orthogonalLoop=1;jettySize=auto;html=1;entryX=1;entryY=0.5;entryDx=0;entryDy=0;exitX=0.5;exitY=1;exitDx=0;exitDy=0;" edge="1" parent="1" source="iaJMB6_S7v5ycFKHqSS--57" target="iaJMB6_S7v5ycFKHqSS--42">
          <mxGeometry relative="1" as="geometry" />
        </mxCell>
        <mxCell id="iaJMB6_S7v5ycFKHqSS--57" value="更新任务状态" style="rounded=0;whiteSpace=wrap;html=1;" vertex="1" parent="1">
          <mxGeometry x="420" y="1169" width="120" height="40" as="geometry" />
        </mxCell>
        <mxCell id="iaJMB6_S7v5ycFKHqSS--60" value="是" style="text;html=1;strokeColor=none;fillColor=none;align=center;verticalAlign=middle;whiteSpace=wrap;rounded=0;" vertex="1" parent="1">
          <mxGeometry x="270" y="1240" width="30" height="30" as="geometry" />
        </mxCell>
        <mxCell id="iaJMB6_S7v5ycFKHqSS--61" value="否" style="text;html=1;strokeColor=none;fillColor=none;align=center;verticalAlign=middle;whiteSpace=wrap;rounded=0;" vertex="1" parent="1">
          <mxGeometry x="345" y="1160" width="30" height="30" as="geometry" />
        </mxCell>
        <mxCell id="iaJMB6_S7v5ycFKHqSS--63" value="任务状态&lt;b&gt;失败&lt;br&gt;记录原因&lt;br&gt;&lt;/b&gt;" style="text;html=1;strokeColor=none;fillColor=none;align=left;verticalAlign=middle;whiteSpace=wrap;rounded=0;" vertex="1" parent="1">
          <mxGeometry x="430" y="1119" width="95" height="50" as="geometry" />
        </mxCell>
        <mxCell id="iaJMB6_S7v5ycFKHqSS--64" value="topic:&lt;span style=&quot;background-color: rgb(255, 255, 255); font-family: &amp;quot;Courier New&amp;quot;; font-size: 9pt;&quot;&gt;KFK_TOPIC_TASK_PUSH_SIT&lt;/span&gt;" style="text;html=1;strokeColor=none;fillColor=none;align=center;verticalAlign=middle;whiteSpace=wrap;rounded=0;" vertex="1" parent="1">
          <mxGeometry x="480" y="1020" width="220" height="30" as="geometry" />
        </mxCell>
        <mxCell id="iaJMB6_S7v5ycFKHqSS--70" style="edgeStyle=orthogonalEdgeStyle;rounded=0;orthogonalLoop=1;jettySize=auto;html=1;entryX=0.5;entryY=0;entryDx=0;entryDy=0;entryPerimeter=0;dashed=1;" edge="1" parent="1" source="iaJMB6_S7v5ycFKHqSS--65" target="iaJMB6_S7v5ycFKHqSS--68">
          <mxGeometry relative="1" as="geometry" />
        </mxCell>
        <mxCell id="iaJMB6_S7v5ycFKHqSS--76" value="" style="edgeStyle=orthogonalEdgeStyle;rounded=0;orthogonalLoop=1;jettySize=auto;html=1;" edge="1" parent="1" source="iaJMB6_S7v5ycFKHqSS--65" target="iaJMB6_S7v5ycFKHqSS--71">
          <mxGeometry relative="1" as="geometry" />
        </mxCell>
        <mxCell id="iaJMB6_S7v5ycFKHqSS--65" value="开始" style="rounded=1;whiteSpace=wrap;html=1;" vertex="1" parent="1">
          <mxGeometry x="870" y="1060" width="110" height="40" as="geometry" />
        </mxCell>
        <mxCell id="iaJMB6_S7v5ycFKHqSS--68" value="" style="shape=cylinder3;whiteSpace=wrap;html=1;boundedLbl=1;backgroundOutline=1;size=15;rotation=90;fillColor=#ffe6cc;strokeColor=#d79b00;" vertex="1" parent="1">
          <mxGeometry x="565" y="995.75" width="37" height="168.5" as="geometry" />
        </mxCell>
        <mxCell id="iaJMB6_S7v5ycFKHqSS--77" value="" style="edgeStyle=orthogonalEdgeStyle;rounded=0;orthogonalLoop=1;jettySize=auto;html=1;" edge="1" parent="1" source="iaJMB6_S7v5ycFKHqSS--71" target="iaJMB6_S7v5ycFKHqSS--73">
          <mxGeometry relative="1" as="geometry" />
        </mxCell>
        <mxCell id="iaJMB6_S7v5ycFKHqSS--71" value="查询任务" style="rounded=0;whiteSpace=wrap;html=1;" vertex="1" parent="1">
          <mxGeometry x="865" y="1155" width="120" height="40" as="geometry" />
        </mxCell>
        <mxCell id="iaJMB6_S7v5ycFKHqSS--75" value="" style="edgeStyle=orthogonalEdgeStyle;rounded=0;orthogonalLoop=1;jettySize=auto;html=1;" edge="1" parent="1" source="iaJMB6_S7v5ycFKHqSS--73" target="iaJMB6_S7v5ycFKHqSS--74">
          <mxGeometry relative="1" as="geometry" />
        </mxCell>
        <mxCell id="iaJMB6_S7v5ycFKHqSS--80" value="" style="edgeStyle=orthogonalEdgeStyle;rounded=0;orthogonalLoop=1;jettySize=auto;html=1;" edge="1" parent="1" source="iaJMB6_S7v5ycFKHqSS--73" target="iaJMB6_S7v5ycFKHqSS--78">
          <mxGeometry relative="1" as="geometry" />
        </mxCell>
        <mxCell id="iaJMB6_S7v5ycFKHqSS--73" value="任务不存在" style="rhombus;whiteSpace=wrap;html=1;" vertex="1" parent="1">
          <mxGeometry x="885" y="1250" width="80" height="80" as="geometry" />
        </mxCell>
        <mxCell id="iaJMB6_S7v5ycFKHqSS--74" value="结束" style="rounded=1;whiteSpace=wrap;html=1;" vertex="1" parent="1">
          <mxGeometry x="870" y="1540" width="110" height="40" as="geometry" />
        </mxCell>
        <mxCell id="iaJMB6_S7v5ycFKHqSS--86" value="" style="edgeStyle=orthogonalEdgeStyle;rounded=0;orthogonalLoop=1;jettySize=auto;html=1;" edge="1" parent="1" source="iaJMB6_S7v5ycFKHqSS--78" target="iaJMB6_S7v5ycFKHqSS--81">
          <mxGeometry relative="1" as="geometry" />
        </mxCell>
        <mxCell id="iaJMB6_S7v5ycFKHqSS--78" value="获取对应任务处理器" style="rounded=0;whiteSpace=wrap;html=1;" vertex="1" parent="1">
          <mxGeometry x="1060" y="1270" width="120" height="40" as="geometry" />
        </mxCell>
        <mxCell id="iaJMB6_S7v5ycFKHqSS--79" value="&lt;pre style=&quot;background-color: rgb(255, 255, 255); font-family: &amp;quot;Courier New&amp;quot;; font-size: 9pt;&quot;&gt;ITaskHandle接口标识&lt;/pre&gt;&lt;pre style=&quot;background-color: rgb(255, 255, 255); font-family: &amp;quot;Courier New&amp;quot;; font-size: 9pt;&quot;&gt;应用启动的时候根据注解注册&lt;/pre&gt;" style="text;html=1;strokeColor=none;fillColor=none;align=center;verticalAlign=middle;whiteSpace=wrap;rounded=0;" vertex="1" parent="1">
          <mxGeometry x="1050" y="1220" width="120" height="30" as="geometry" />
        </mxCell>
        <mxCell id="iaJMB6_S7v5ycFKHqSS--85" value="" style="edgeStyle=orthogonalEdgeStyle;rounded=0;orthogonalLoop=1;jettySize=auto;html=1;" edge="1" parent="1" source="iaJMB6_S7v5ycFKHqSS--81" target="iaJMB6_S7v5ycFKHqSS--82">
          <mxGeometry relative="1" as="geometry" />
        </mxCell>
        <mxCell id="iaJMB6_S7v5ycFKHqSS--89" value="" style="edgeStyle=orthogonalEdgeStyle;rounded=0;orthogonalLoop=1;jettySize=auto;html=1;" edge="1" parent="1" source="iaJMB6_S7v5ycFKHqSS--81" target="iaJMB6_S7v5ycFKHqSS--88">
          <mxGeometry relative="1" as="geometry" />
        </mxCell>
        <mxCell id="iaJMB6_S7v5ycFKHqSS--81" value="处理器存在?" style="rhombus;whiteSpace=wrap;html=1;" vertex="1" parent="1">
          <mxGeometry x="1080" y="1350" width="80" height="80" as="geometry" />
        </mxCell>
        <mxCell id="iaJMB6_S7v5ycFKHqSS--87" value="" style="edgeStyle=orthogonalEdgeStyle;rounded=0;orthogonalLoop=1;jettySize=auto;html=1;" edge="1" parent="1" source="iaJMB6_S7v5ycFKHqSS--82" target="iaJMB6_S7v5ycFKHqSS--74">
          <mxGeometry relative="1" as="geometry" />
        </mxCell>
        <mxCell id="iaJMB6_S7v5ycFKHqSS--82" value="更新任务状态" style="rounded=0;whiteSpace=wrap;html=1;" vertex="1" parent="1">
          <mxGeometry x="1060" y="1540" width="120" height="40" as="geometry" />
        </mxCell>
        <mxCell id="iaJMB6_S7v5ycFKHqSS--83" value="任务状态&lt;b&gt;失败&lt;br&gt;记录原因&lt;br&gt;&lt;/b&gt;" style="text;html=1;strokeColor=none;fillColor=none;align=left;verticalAlign=middle;whiteSpace=wrap;rounded=0;" vertex="1" parent="1">
          <mxGeometry x="1030" y="1460" width="95" height="50" as="geometry" />
        </mxCell>
        <mxCell id="iaJMB6_S7v5ycFKHqSS--92" value="" style="edgeStyle=orthogonalEdgeStyle;rounded=0;orthogonalLoop=1;jettySize=auto;html=1;" edge="1" parent="1" source="iaJMB6_S7v5ycFKHqSS--88" target="iaJMB6_S7v5ycFKHqSS--91">
          <mxGeometry relative="1" as="geometry" />
        </mxCell>
        <mxCell id="iaJMB6_S7v5ycFKHqSS--88" value="获取对应任务处理器" style="rounded=0;whiteSpace=wrap;html=1;" vertex="1" parent="1">
          <mxGeometry x="1220" y="1370" width="120" height="40" as="geometry" />
        </mxCell>
        <mxCell id="iaJMB6_S7v5ycFKHqSS--90" value="&lt;pre style=&quot;background-color: rgb(255, 255, 255); font-family: &amp;quot;Courier New&amp;quot;; font-size: 9pt;&quot;&gt;OrderImportTaskHandle&lt;/pre&gt;" style="text;html=1;strokeColor=none;fillColor=none;align=center;verticalAlign=middle;whiteSpace=wrap;rounded=0;" vertex="1" parent="1">
          <mxGeometry x="1185" y="1340" width="190" height="30" as="geometry" />
        </mxCell>
        <mxCell id="iaJMB6_S7v5ycFKHqSS--93" style="edgeStyle=orthogonalEdgeStyle;rounded=0;orthogonalLoop=1;jettySize=auto;html=1;entryX=1;entryY=0.5;entryDx=0;entryDy=0;exitX=0.5;exitY=1;exitDx=0;exitDy=0;" edge="1" parent="1" source="iaJMB6_S7v5ycFKHqSS--91" target="iaJMB6_S7v5ycFKHqSS--82">
          <mxGeometry relative="1" as="geometry" />
        </mxCell>
        <mxCell id="iaJMB6_S7v5ycFKHqSS--91" value="调用retailer处理" style="rounded=0;whiteSpace=wrap;html=1;" vertex="1" parent="1">
          <mxGeometry x="1220" y="1460" width="120" height="40" as="geometry" />
        </mxCell>
        <mxCell id="iaJMB6_S7v5ycFKHqSS--94" value="redis移除导入key" style="rounded=0;whiteSpace=wrap;html=1;" vertex="1" parent="1">
          <mxGeometry x="1060" y="1600" width="120" height="40" as="geometry" />
        </mxCell>
        <mxCell id="iaJMB6_S7v5ycFKHqSS--95" value="&lt;pre style=&quot;background-color: rgb(255, 255, 255); font-family: &amp;quot;Courier New&amp;quot;; font-size: 9pt;&quot;&gt;&lt;span style=&quot;color:#008000;font-weight:bold;&quot;&gt;/inner/retail/doOrderImportTask&lt;/span&gt;&lt;/pre&gt;" style="text;html=1;strokeColor=none;fillColor=none;align=center;verticalAlign=middle;whiteSpace=wrap;rounded=0;" vertex="1" parent="1">
          <mxGeometry x="1360" y="1465" width="220" height="30" as="geometry" />
        </mxCell>
        <mxCell id="hNy_1H1guwmeQA0wGxnE-5" value="" style="edgeStyle=orthogonalEdgeStyle;rounded=0;orthogonalLoop=1;jettySize=auto;html=1;" edge="1" parent="1" source="hNy_1H1guwmeQA0wGxnE-1" target="hNy_1H1guwmeQA0wGxnE-3">
          <mxGeometry relative="1" as="geometry" />
        </mxCell>
        <mxCell id="hNy_1H1guwmeQA0wGxnE-1" value="开始" style="rounded=1;whiteSpace=wrap;html=1;" vertex="1" parent="1">
          <mxGeometry x="960" y="50" width="110" height="40" as="geometry" />
        </mxCell>
        <mxCell id="hNy_1H1guwmeQA0wGxnE-2" value="参数构建" style="rounded=0;whiteSpace=wrap;html=1;" vertex="1" parent="1">
          <mxGeometry x="955" y="250" width="120" height="40" as="geometry" />
        </mxCell>
        <mxCell id="hNy_1H1guwmeQA0wGxnE-6" value="" style="edgeStyle=orthogonalEdgeStyle;rounded=0;orthogonalLoop=1;jettySize=auto;html=1;" edge="1" parent="1" source="hNy_1H1guwmeQA0wGxnE-3" target="hNy_1H1guwmeQA0wGxnE-2">
          <mxGeometry relative="1" as="geometry" />
        </mxCell>
        <mxCell id="hNy_1H1guwmeQA0wGxnE-3" value="OBS下载文件" style="rounded=0;whiteSpace=wrap;html=1;" vertex="1" parent="1">
          <mxGeometry x="955" y="150" width="120" height="40" as="geometry" />
        </mxCell>
        <mxCell id="hNy_1H1guwmeQA0wGxnE-4" value="&lt;pre style=&quot;background-color: rgb(255, 255, 255); font-family: &amp;quot;Courier New&amp;quot;; font-size: 9pt;&quot;&gt;&lt;span style=&quot;color:#660e7a;font-weight:bold;&quot;&gt;expressUrl模块 &lt;/span&gt;&lt;span style=&quot;color:#008000;font-weight:bold;&quot;&gt;/order/saleOrder/import&lt;/span&gt;&lt;/pre&gt;&lt;pre style=&quot;background-color: rgb(255, 255, 255); font-family: &amp;quot;Courier New&amp;quot;; font-size: 9pt;&quot;&gt;&lt;pre style=&quot;font-family: &amp;quot;Courier New&amp;quot;; font-size: 9pt;&quot;&gt;&lt;span style=&quot;color:#808080;font-style:italic;&quot;&gt;拼接权限参数&lt;/span&gt;&lt;/pre&gt;&lt;pre style=&quot;font-family: &amp;quot;Courier New&amp;quot;; font-size: 9pt;&quot;&gt;&lt;font color=&quot;#808080&quot;&gt;&lt;i&gt;商户Id&lt;/i&gt;&lt;/font&gt;&lt;/pre&gt;&lt;pre style=&quot;font-family: &amp;quot;Courier New&amp;quot;; font-size: 9pt;&quot;&gt;非主账号添加 组织Id&lt;/pre&gt;&lt;pre style=&quot;font-family: &amp;quot;Courier New&amp;quot;; font-size: 9pt;&quot;&gt;&lt;span style=&quot;color:#808080;font-style:italic;&quot;&gt;组织数据私有，非组织负责人，加创建人ID&lt;/span&gt;&lt;/pre&gt;&lt;pre style=&quot;font-family: &amp;quot;Courier New&amp;quot;; font-size: 9pt;&quot;&gt;&lt;font style=&quot;font-size: 9pt;&quot; color=&quot;#808080&quot;&gt;&lt;i&gt;&amp;amp;&lt;/i&gt;&lt;/font&gt;&lt;span style=&quot;font-size: 9pt;&quot;&gt;merchantId=&lt;/span&gt;&lt;span style=&quot;font-size: 9pt;&quot;&gt;&amp;amp;organId=&lt;/span&gt;&amp;amp;creatorId=&lt;/pre&gt;&lt;/pre&gt;" style="text;html=1;strokeColor=none;fillColor=none;align=left;verticalAlign=middle;whiteSpace=wrap;rounded=0;" vertex="1" parent="1">
          <mxGeometry x="1120" y="185" width="270" height="170" as="geometry" />
        </mxCell>
      </root>
    </mxGraphModel>
  </diagram>
  <diagram id="SBfxKGozbUk5vd_RHHLc" name="人工下单">
    <mxGraphModel dx="1390" dy="602" grid="1" gridSize="10" guides="1" tooltips="1" connect="1" arrows="1" fold="1" page="1" pageScale="1" pageWidth="827" pageHeight="1169" math="0" shadow="0">
      <root>
        <mxCell id="0" />
        <mxCell id="1" parent="0" />
        <mxCell id="4FcIvpIHeWygWOenw7Vw-6" value="" style="edgeStyle=orthogonalEdgeStyle;rounded=0;orthogonalLoop=1;jettySize=auto;html=1;entryX=0.5;entryY=0;entryDx=0;entryDy=0;" edge="1" parent="1" source="4FcIvpIHeWygWOenw7Vw-1" target="4FcIvpIHeWygWOenw7Vw-10">
          <mxGeometry relative="1" as="geometry" />
        </mxCell>
        <mxCell id="4FcIvpIHeWygWOenw7Vw-1" value="开始" style="rounded=1;whiteSpace=wrap;html=1;" vertex="1" parent="1">
          <mxGeometry x="147.5" y="20" width="110" height="50" as="geometry" />
        </mxCell>
        <mxCell id="4FcIvpIHeWygWOenw7Vw-2" value="&lt;pre style=&quot;background-color: rgb(255, 255, 255); font-family: &amp;quot;Courier New&amp;quot;; font-size: 9pt;&quot;&gt;&lt;span style=&quot;color:#660e7a;font-weight:bold;&quot;&gt;express：&lt;/span&gt;&lt;span style=&quot;color:#008000;font-weight:bold;&quot;&gt;/order/saleOrder&lt;/span&gt;&lt;/pre&gt;" style="text;html=1;strokeColor=none;fillColor=none;align=center;verticalAlign=middle;whiteSpace=wrap;rounded=0;" vertex="1" parent="1">
          <mxGeometry x="270" y="295" width="220" height="30" as="geometry" />
        </mxCell>
        <mxCell id="4FcIvpIHeWygWOenw7Vw-7" value="" style="edgeStyle=orthogonalEdgeStyle;rounded=0;orthogonalLoop=1;jettySize=auto;html=1;" edge="1" parent="1" source="4FcIvpIHeWygWOenw7Vw-3" target="4FcIvpIHeWygWOenw7Vw-4">
          <mxGeometry relative="1" as="geometry" />
        </mxCell>
        <mxCell id="4FcIvpIHeWygWOenw7Vw-3" value="月结卡号、代收卡号处理" style="rounded=0;whiteSpace=wrap;html=1;" vertex="1" parent="1">
          <mxGeometry x="145" y="200" width="115" height="40" as="geometry" />
        </mxCell>
        <mxCell id="4FcIvpIHeWygWOenw7Vw-8" value="" style="edgeStyle=orthogonalEdgeStyle;rounded=0;orthogonalLoop=1;jettySize=auto;html=1;" edge="1" parent="1" source="4FcIvpIHeWygWOenw7Vw-4" target="4FcIvpIHeWygWOenw7Vw-5">
          <mxGeometry relative="1" as="geometry" />
        </mxCell>
        <mxCell id="4FcIvpIHeWygWOenw7Vw-4" value="调用exprsss模块" style="rounded=0;whiteSpace=wrap;html=1;" vertex="1" parent="1">
          <mxGeometry x="145" y="290" width="115" height="40" as="geometry" />
        </mxCell>
        <mxCell id="4FcIvpIHeWygWOenw7Vw-5" value="结束" style="rounded=1;whiteSpace=wrap;html=1;" vertex="1" parent="1">
          <mxGeometry x="147" y="370" width="110" height="50" as="geometry" />
        </mxCell>
        <mxCell id="4FcIvpIHeWygWOenw7Vw-9" value="代收卡号填充为月结卡号" style="text;html=1;strokeColor=none;fillColor=none;align=center;verticalAlign=middle;whiteSpace=wrap;rounded=0;" vertex="1" parent="1">
          <mxGeometry x="30" y="205" width="80" height="30" as="geometry" />
        </mxCell>
        <mxCell id="4FcIvpIHeWygWOenw7Vw-11" value="" style="edgeStyle=orthogonalEdgeStyle;rounded=0;orthogonalLoop=1;jettySize=auto;html=1;" edge="1" parent="1" source="4FcIvpIHeWygWOenw7Vw-10" target="4FcIvpIHeWygWOenw7Vw-3">
          <mxGeometry relative="1" as="geometry" />
        </mxCell>
        <mxCell id="4FcIvpIHeWygWOenw7Vw-10" value="组织设置" style="rounded=0;whiteSpace=wrap;html=1;" vertex="1" parent="1">
          <mxGeometry x="145" y="110" width="115" height="40" as="geometry" />
        </mxCell>
        <mxCell id="4FcIvpIHeWygWOenw7Vw-12" value="上下文获取" style="text;html=1;strokeColor=none;fillColor=none;align=center;verticalAlign=middle;whiteSpace=wrap;rounded=0;" vertex="1" parent="1">
          <mxGeometry x="30" y="115" width="60" height="30" as="geometry" />
        </mxCell>
        <mxCell id="4FcIvpIHeWygWOenw7Vw-46" value="" style="edgeStyle=orthogonalEdgeStyle;rounded=0;orthogonalLoop=1;jettySize=auto;html=1;fontSize=12;" edge="1" parent="1" source="4FcIvpIHeWygWOenw7Vw-13" target="4FcIvpIHeWygWOenw7Vw-17">
          <mxGeometry relative="1" as="geometry" />
        </mxCell>
        <mxCell id="4FcIvpIHeWygWOenw7Vw-13" value="开始" style="rounded=1;whiteSpace=wrap;html=1;" vertex="1" parent="1">
          <mxGeometry x="150" y="535" width="110" height="50" as="geometry" />
        </mxCell>
        <mxCell id="4FcIvpIHeWygWOenw7Vw-14" value="&lt;b&gt;&lt;font style=&quot;font-size: 18px;&quot;&gt;Express&lt;/font&gt;&lt;/b&gt;" style="text;html=1;strokeColor=none;fillColor=none;align=center;verticalAlign=middle;whiteSpace=wrap;rounded=0;" vertex="1" parent="1">
          <mxGeometry x="30" y="470" width="60" height="30" as="geometry" />
        </mxCell>
        <mxCell id="4FcIvpIHeWygWOenw7Vw-15" value="&lt;font style=&quot;font-size: 12px;&quot;&gt;com.sf.ms.express.service.order.impl.SaleOrderServiceImpl#save&lt;/font&gt;" style="text;html=1;strokeColor=none;fillColor=none;align=center;verticalAlign=middle;whiteSpace=wrap;rounded=0;fontSize=18;" vertex="1" parent="1">
          <mxGeometry x="100" y="470" width="370" height="30" as="geometry" />
        </mxCell>
        <mxCell id="4FcIvpIHeWygWOenw7Vw-47" value="" style="edgeStyle=orthogonalEdgeStyle;rounded=0;orthogonalLoop=1;jettySize=auto;html=1;fontSize=12;" edge="1" parent="1" source="4FcIvpIHeWygWOenw7Vw-17" target="4FcIvpIHeWygWOenw7Vw-22">
          <mxGeometry relative="1" as="geometry" />
        </mxCell>
        <mxCell id="4FcIvpIHeWygWOenw7Vw-17" value="包裹数量校验" style="rounded=0;whiteSpace=wrap;html=1;" vertex="1" parent="1">
          <mxGeometry x="147" y="640" width="115" height="40" as="geometry" />
        </mxCell>
        <mxCell id="4FcIvpIHeWygWOenw7Vw-18" value="不超过1200" style="text;html=1;strokeColor=none;fillColor=none;align=center;verticalAlign=middle;whiteSpace=wrap;rounded=0;fontSize=12;" vertex="1" parent="1">
          <mxGeometry x="40" y="650" width="80" height="30" as="geometry" />
        </mxCell>
        <mxCell id="4FcIvpIHeWygWOenw7Vw-20" value="不超过100个&lt;br&gt;按&lt;span style=&quot;color: rgb(128, 128, 128); font-style: italic; background-color: rgb(255, 255, 255); font-family: &amp;quot;Courier New&amp;quot;; font-size: 9pt;&quot;&gt;收件人名称，手机，电话，地址，收件公司去重&lt;/span&gt;" style="text;html=1;strokeColor=none;fillColor=none;align=left;verticalAlign=middle;whiteSpace=wrap;rounded=0;fontSize=12;" vertex="1" parent="1">
          <mxGeometry x="490" y="730" width="290" height="60" as="geometry" />
        </mxCell>
        <mxCell id="4FcIvpIHeWygWOenw7Vw-50" style="edgeStyle=orthogonalEdgeStyle;rounded=0;orthogonalLoop=1;jettySize=auto;html=1;entryX=1;entryY=0.5;entryDx=0;entryDy=0;fontSize=12;" edge="1" parent="1" source="4FcIvpIHeWygWOenw7Vw-21" target="4FcIvpIHeWygWOenw7Vw-23">
          <mxGeometry relative="1" as="geometry">
            <Array as="points">
              <mxPoint x="388" y="880" />
            </Array>
          </mxGeometry>
        </mxCell>
        <mxCell id="4FcIvpIHeWygWOenw7Vw-21" value="收件人信息处理" style="rounded=0;whiteSpace=wrap;html=1;" vertex="1" parent="1">
          <mxGeometry x="330" y="740" width="115" height="40" as="geometry" />
        </mxCell>
        <mxCell id="4FcIvpIHeWygWOenw7Vw-48" value="" style="edgeStyle=orthogonalEdgeStyle;rounded=0;orthogonalLoop=1;jettySize=auto;html=1;fontSize=12;" edge="1" parent="1" source="4FcIvpIHeWygWOenw7Vw-22" target="4FcIvpIHeWygWOenw7Vw-23">
          <mxGeometry relative="1" as="geometry" />
        </mxCell>
        <mxCell id="4FcIvpIHeWygWOenw7Vw-49" style="edgeStyle=orthogonalEdgeStyle;rounded=0;orthogonalLoop=1;jettySize=auto;html=1;entryX=0;entryY=0.5;entryDx=0;entryDy=0;fontSize=12;" edge="1" parent="1" source="4FcIvpIHeWygWOenw7Vw-22" target="4FcIvpIHeWygWOenw7Vw-21">
          <mxGeometry relative="1" as="geometry" />
        </mxCell>
        <mxCell id="4FcIvpIHeWygWOenw7Vw-22" value="收件人数量超过1个" style="rhombus;whiteSpace=wrap;html=1;fontSize=12;" vertex="1" parent="1">
          <mxGeometry x="165" y="720" width="80" height="80" as="geometry" />
        </mxCell>
        <mxCell id="4FcIvpIHeWygWOenw7Vw-51" style="edgeStyle=orthogonalEdgeStyle;rounded=0;orthogonalLoop=1;jettySize=auto;html=1;entryX=0.5;entryY=0;entryDx=0;entryDy=0;fontSize=12;exitX=0.5;exitY=1;exitDx=0;exitDy=0;" edge="1" parent="1" source="4FcIvpIHeWygWOenw7Vw-23" target="4FcIvpIHeWygWOenw7Vw-24">
          <mxGeometry relative="1" as="geometry" />
        </mxCell>
        <mxCell id="4FcIvpIHeWygWOenw7Vw-52" style="edgeStyle=orthogonalEdgeStyle;rounded=0;orthogonalLoop=1;jettySize=auto;html=1;entryX=0.5;entryY=0;entryDx=0;entryDy=0;fontSize=12;exitX=0;exitY=0.5;exitDx=0;exitDy=0;" edge="1" parent="1" source="4FcIvpIHeWygWOenw7Vw-23" target="4FcIvpIHeWygWOenw7Vw-22">
          <mxGeometry relative="1" as="geometry">
            <Array as="points">
              <mxPoint x="110" y="880" />
              <mxPoint x="110" y="700" />
              <mxPoint x="205" y="700" />
            </Array>
          </mxGeometry>
        </mxCell>
        <mxCell id="4FcIvpIHeWygWOenw7Vw-23" value="保存" style="rounded=0;whiteSpace=wrap;html=1;" vertex="1" parent="1">
          <mxGeometry x="147" y="860" width="115" height="40" as="geometry" />
        </mxCell>
        <mxCell id="4FcIvpIHeWygWOenw7Vw-54" style="edgeStyle=orthogonalEdgeStyle;rounded=0;orthogonalLoop=1;jettySize=auto;html=1;fontSize=12;" edge="1" parent="1" source="4FcIvpIHeWygWOenw7Vw-24" target="4FcIvpIHeWygWOenw7Vw-26">
          <mxGeometry relative="1" as="geometry" />
        </mxCell>
        <mxCell id="4FcIvpIHeWygWOenw7Vw-24" value="预约取件时间处理" style="rounded=0;whiteSpace=wrap;html=1;" vertex="1" parent="1">
          <mxGeometry x="330" y="970" width="115" height="40" as="geometry" />
        </mxCell>
        <mxCell id="4FcIvpIHeWygWOenw7Vw-55" value="" style="edgeStyle=orthogonalEdgeStyle;rounded=0;orthogonalLoop=1;jettySize=auto;html=1;fontSize=12;" edge="1" parent="1" source="4FcIvpIHeWygWOenw7Vw-26" target="4FcIvpIHeWygWOenw7Vw-28">
          <mxGeometry relative="1" as="geometry" />
        </mxCell>
        <mxCell id="4FcIvpIHeWygWOenw7Vw-26" value="检查订单是否已存在" style="rounded=0;whiteSpace=wrap;html=1;" vertex="1" parent="1">
          <mxGeometry x="330" y="1050" width="115" height="40" as="geometry" />
        </mxCell>
        <mxCell id="4FcIvpIHeWygWOenw7Vw-27" value="商户、订单号、创建人" style="text;html=1;strokeColor=none;fillColor=none;align=left;verticalAlign=middle;whiteSpace=wrap;rounded=0;fontSize=12;" vertex="1" parent="1">
          <mxGeometry x="490" y="1055" width="210" height="30" as="geometry" />
        </mxCell>
        <mxCell id="4FcIvpIHeWygWOenw7Vw-56" style="edgeStyle=orthogonalEdgeStyle;rounded=0;orthogonalLoop=1;jettySize=auto;html=1;entryX=0.5;entryY=0;entryDx=0;entryDy=0;fontSize=12;" edge="1" parent="1" source="4FcIvpIHeWygWOenw7Vw-28" target="4FcIvpIHeWygWOenw7Vw-30">
          <mxGeometry relative="1" as="geometry" />
        </mxCell>
        <mxCell id="4FcIvpIHeWygWOenw7Vw-28" value="订单状态清空重置" style="rounded=0;whiteSpace=wrap;html=1;" vertex="1" parent="1">
          <mxGeometry x="330" y="1120" width="115" height="40" as="geometry" />
        </mxCell>
        <mxCell id="4FcIvpIHeWygWOenw7Vw-29" value="&lt;br&gt;订单状态 status&amp;nbsp;&amp;nbsp;&lt;span style=&quot;color: rgb(0, 128, 0); font-weight: bold; background-color: rgb(255, 255, 255); font-family: &amp;quot;Courier New&amp;quot;; font-size: 9pt;&quot;&gt;-1已取消 0已确认&lt;/span&gt;&lt;br&gt;审核状态 verifyStatus&amp;nbsp;&lt;span style=&quot;color: rgb(0, 128, 0); font-weight: bold; background-color: rgb(255, 255, 255); font-family: &amp;quot;Courier New&amp;quot;; font-size: 9pt;&quot;&gt; 0 待审核 1 已审核&lt;/span&gt;&lt;br&gt;发货状态 sendStatus&amp;nbsp;&lt;span style=&quot;color: rgb(0, 128, 0); font-weight: bold; background-color: rgb(255, 255, 255); font-family: &amp;quot;Courier New&amp;quot;; font-size: 9pt;&quot;&gt; -1发货失败 0未发货 1已发货&amp;nbsp;&lt;/span&gt;&lt;br&gt;运单状态 waybillStatus&amp;nbsp;&amp;nbsp;&lt;span style=&quot;color: rgb(0, 128, 0); font-weight: bold; background-color: rgb(255, 255, 255); font-family: &amp;quot;Courier New&amp;quot;; font-size: 9pt;&quot;&gt;0待揽收  1已揽收 2运输中 3派送中 4异常件 5退回件 6退回签收 7转寄件 8作废件 9已签收&lt;/span&gt;" style="text;html=1;strokeColor=none;fillColor=none;align=left;verticalAlign=middle;whiteSpace=wrap;rounded=0;fontSize=12;" vertex="1" parent="1">
          <mxGeometry x="490" y="1097.5" width="680" height="85" as="geometry" />
        </mxCell>
        <mxCell id="4FcIvpIHeWygWOenw7Vw-57" style="edgeStyle=orthogonalEdgeStyle;rounded=0;orthogonalLoop=1;jettySize=auto;html=1;entryX=0.5;entryY=0;entryDx=0;entryDy=0;fontSize=12;" edge="1" parent="1" source="4FcIvpIHeWygWOenw7Vw-30" target="4FcIvpIHeWygWOenw7Vw-31">
          <mxGeometry relative="1" as="geometry" />
        </mxCell>
        <mxCell id="4FcIvpIHeWygWOenw7Vw-30" value="收寄件人地址检查" style="rounded=0;whiteSpace=wrap;html=1;" vertex="1" parent="1">
          <mxGeometry x="330" y="1220" width="115" height="40" as="geometry" />
        </mxCell>
        <mxCell id="4FcIvpIHeWygWOenw7Vw-58" style="edgeStyle=orthogonalEdgeStyle;rounded=0;orthogonalLoop=1;jettySize=auto;html=1;fontSize=12;" edge="1" parent="1" source="4FcIvpIHeWygWOenw7Vw-31" target="4FcIvpIHeWygWOenw7Vw-33">
          <mxGeometry relative="1" as="geometry" />
        </mxCell>
        <mxCell id="4FcIvpIHeWygWOenw7Vw-31" value="千点取件判断" style="rounded=0;whiteSpace=wrap;html=1;" vertex="1" parent="1">
          <mxGeometry x="330" y="1320" width="115" height="40" as="geometry" />
        </mxCell>
        <mxCell id="4FcIvpIHeWygWOenw7Vw-32" value="物流产品：50 -&lt;span style=&quot;background-color: rgb(246, 235, 188); color: rgb(0, 128, 0); font-weight: bold; font-family: &amp;quot;Courier New&amp;quot;; font-size: 9pt;&quot;&gt;千点取80&lt;/span&gt;&lt;span style=&quot;background-color: initial;&quot;&gt;&amp;nbsp; &amp;nbsp; 51-&amp;nbsp;&lt;/span&gt;&lt;span style=&quot;background-color: rgb(246, 235, 188); color: rgb(0, 128, 0); font-weight: bold; font-family: &amp;quot;Courier New&amp;quot;; font-size: 9pt;&quot;&gt;千点取80&lt;/span&gt;&lt;span style=&quot;background-color: initial;&quot;&gt;&amp;nbsp; 52-&lt;/span&gt;&lt;span style=&quot;background-color: rgb(246, 235, 188); color: rgb(0, 128, 0); font-weight: bold; font-family: &amp;quot;Courier New&amp;quot;; font-size: 9pt;&quot;&gt;千点取100&lt;br&gt;判断是否有权限寄件地址是否包含香港&lt;br&gt;&lt;/span&gt;" style="text;html=1;strokeColor=none;fillColor=none;align=left;verticalAlign=middle;whiteSpace=wrap;rounded=0;fontSize=12;" vertex="1" parent="1">
          <mxGeometry x="490" y="1330" width="340" height="30" as="geometry" />
        </mxCell>
        <mxCell id="4FcIvpIHeWygWOenw7Vw-59" style="edgeStyle=orthogonalEdgeStyle;rounded=0;orthogonalLoop=1;jettySize=auto;html=1;fontSize=12;" edge="1" parent="1" source="4FcIvpIHeWygWOenw7Vw-33" target="4FcIvpIHeWygWOenw7Vw-34">
          <mxGeometry relative="1" as="geometry" />
        </mxCell>
        <mxCell id="4FcIvpIHeWygWOenw7Vw-33" value="保存收件地址" style="rounded=0;whiteSpace=wrap;html=1;" vertex="1" parent="1">
          <mxGeometry x="330" y="1400" width="115" height="40" as="geometry" />
        </mxCell>
        <mxCell id="4FcIvpIHeWygWOenw7Vw-60" style="edgeStyle=orthogonalEdgeStyle;rounded=0;orthogonalLoop=1;jettySize=auto;html=1;entryX=0.5;entryY=0;entryDx=0;entryDy=0;fontSize=12;" edge="1" parent="1" source="4FcIvpIHeWygWOenw7Vw-34" target="4FcIvpIHeWygWOenw7Vw-35">
          <mxGeometry relative="1" as="geometry" />
        </mxCell>
        <mxCell id="4FcIvpIHeWygWOenw7Vw-34" value="查询旧地址" style="rounded=0;whiteSpace=wrap;html=1;" vertex="1" parent="1">
          <mxGeometry x="520" y="1400" width="115" height="40" as="geometry" />
        </mxCell>
        <mxCell id="4FcIvpIHeWygWOenw7Vw-61" value="" style="edgeStyle=orthogonalEdgeStyle;rounded=0;orthogonalLoop=1;jettySize=auto;html=1;fontSize=12;" edge="1" parent="1" source="4FcIvpIHeWygWOenw7Vw-35" target="4FcIvpIHeWygWOenw7Vw-39">
          <mxGeometry relative="1" as="geometry" />
        </mxCell>
        <mxCell id="4FcIvpIHeWygWOenw7Vw-69" value="" style="edgeStyle=orthogonalEdgeStyle;rounded=0;orthogonalLoop=1;jettySize=auto;html=1;fontSize=12;" edge="1" parent="1" source="4FcIvpIHeWygWOenw7Vw-35" target="4FcIvpIHeWygWOenw7Vw-37">
          <mxGeometry relative="1" as="geometry" />
        </mxCell>
        <mxCell id="4FcIvpIHeWygWOenw7Vw-35" value="存在" style="rhombus;whiteSpace=wrap;html=1;fontSize=12;" vertex="1" parent="1">
          <mxGeometry x="538" y="1490" width="80" height="80" as="geometry" />
        </mxCell>
        <mxCell id="4FcIvpIHeWygWOenw7Vw-36" value="订单号、商户、组织、创建人作为条件" style="text;html=1;strokeColor=none;fillColor=none;align=center;verticalAlign=middle;whiteSpace=wrap;rounded=0;fontSize=12;" vertex="1" parent="1">
          <mxGeometry x="680" y="1400" width="220" height="30" as="geometry" />
        </mxCell>
        <mxCell id="4FcIvpIHeWygWOenw7Vw-70" style="edgeStyle=orthogonalEdgeStyle;rounded=0;orthogonalLoop=1;jettySize=auto;html=1;entryX=1;entryY=0.5;entryDx=0;entryDy=0;fontSize=12;exitX=0.5;exitY=1;exitDx=0;exitDy=0;" edge="1" parent="1" source="4FcIvpIHeWygWOenw7Vw-37" target="4FcIvpIHeWygWOenw7Vw-39">
          <mxGeometry relative="1" as="geometry" />
        </mxCell>
        <mxCell id="4FcIvpIHeWygWOenw7Vw-37" value="删除旧地址" style="rounded=0;whiteSpace=wrap;html=1;" vertex="1" parent="1">
          <mxGeometry x="690" y="1510" width="115" height="40" as="geometry" />
        </mxCell>
        <mxCell id="4FcIvpIHeWygWOenw7Vw-38" value="* 替换成实际的地址信息" style="text;html=1;strokeColor=none;fillColor=none;align=center;verticalAlign=middle;whiteSpace=wrap;rounded=0;fontSize=12;" vertex="1" parent="1">
          <mxGeometry x="330" y="1635" width="150" height="30" as="geometry" />
        </mxCell>
        <mxCell id="4FcIvpIHeWygWOenw7Vw-62" value="" style="edgeStyle=orthogonalEdgeStyle;rounded=0;orthogonalLoop=1;jettySize=auto;html=1;fontSize=12;" edge="1" parent="1" source="4FcIvpIHeWygWOenw7Vw-39" target="4FcIvpIHeWygWOenw7Vw-40">
          <mxGeometry relative="1" as="geometry" />
        </mxCell>
        <mxCell id="4FcIvpIHeWygWOenw7Vw-39" value="寄件人信息处理" style="rounded=0;whiteSpace=wrap;html=1;" vertex="1" parent="1">
          <mxGeometry x="520" y="1630" width="115" height="40" as="geometry" />
        </mxCell>
        <mxCell id="4FcIvpIHeWygWOenw7Vw-63" value="" style="edgeStyle=orthogonalEdgeStyle;rounded=0;orthogonalLoop=1;jettySize=auto;html=1;fontSize=12;" edge="1" parent="1" source="4FcIvpIHeWygWOenw7Vw-40" target="4FcIvpIHeWygWOenw7Vw-41">
          <mxGeometry relative="1" as="geometry" />
        </mxCell>
        <mxCell id="4FcIvpIHeWygWOenw7Vw-40" value="寄件人信息处理" style="rounded=0;whiteSpace=wrap;html=1;" vertex="1" parent="1">
          <mxGeometry x="520" y="1734" width="115" height="40" as="geometry" />
        </mxCell>
        <mxCell id="4FcIvpIHeWygWOenw7Vw-64" value="" style="edgeStyle=orthogonalEdgeStyle;rounded=0;orthogonalLoop=1;jettySize=auto;html=1;fontSize=12;" edge="1" parent="1" source="4FcIvpIHeWygWOenw7Vw-41" target="4FcIvpIHeWygWOenw7Vw-43">
          <mxGeometry relative="1" as="geometry" />
        </mxCell>
        <mxCell id="4FcIvpIHeWygWOenw7Vw-67" value="" style="edgeStyle=orthogonalEdgeStyle;rounded=0;orthogonalLoop=1;jettySize=auto;html=1;fontSize=12;" edge="1" parent="1" source="4FcIvpIHeWygWOenw7Vw-41" target="4FcIvpIHeWygWOenw7Vw-42">
          <mxGeometry relative="1" as="geometry" />
        </mxCell>
        <mxCell id="4FcIvpIHeWygWOenw7Vw-41" value="通讯录地址？" style="rhombus;whiteSpace=wrap;html=1;fontSize=12;" vertex="1" parent="1">
          <mxGeometry x="538" y="1830" width="80" height="80" as="geometry" />
        </mxCell>
        <mxCell id="4FcIvpIHeWygWOenw7Vw-68" style="edgeStyle=orthogonalEdgeStyle;rounded=0;orthogonalLoop=1;jettySize=auto;html=1;entryX=1;entryY=0.5;entryDx=0;entryDy=0;fontSize=12;exitX=0.5;exitY=1;exitDx=0;exitDy=0;" edge="1" parent="1" source="4FcIvpIHeWygWOenw7Vw-42" target="4FcIvpIHeWygWOenw7Vw-43">
          <mxGeometry relative="1" as="geometry" />
        </mxCell>
        <mxCell id="4FcIvpIHeWygWOenw7Vw-42" value="GIS解析处理" style="rounded=0;whiteSpace=wrap;html=1;" vertex="1" parent="1">
          <mxGeometry x="680" y="1850" width="115" height="40" as="geometry" />
        </mxCell>
        <mxCell id="4FcIvpIHeWygWOenw7Vw-65" value="" style="edgeStyle=orthogonalEdgeStyle;rounded=0;orthogonalLoop=1;jettySize=auto;html=1;fontSize=12;" edge="1" parent="1" source="4FcIvpIHeWygWOenw7Vw-43" target="4FcIvpIHeWygWOenw7Vw-44">
          <mxGeometry relative="1" as="geometry" />
        </mxCell>
        <mxCell id="4FcIvpIHeWygWOenw7Vw-43" value="港澳台寄件检查" style="rounded=0;whiteSpace=wrap;html=1;" vertex="1" parent="1">
          <mxGeometry x="520" y="1960" width="115" height="40" as="geometry" />
        </mxCell>
        <mxCell id="4FcIvpIHeWygWOenw7Vw-66" value="" style="edgeStyle=orthogonalEdgeStyle;rounded=0;orthogonalLoop=1;jettySize=auto;html=1;fontSize=12;" edge="1" parent="1" source="4FcIvpIHeWygWOenw7Vw-44" target="4FcIvpIHeWygWOenw7Vw-45">
          <mxGeometry relative="1" as="geometry" />
        </mxCell>
        <mxCell id="4FcIvpIHeWygWOenw7Vw-44" value="扩展字段设置" style="rounded=0;whiteSpace=wrap;html=1;" vertex="1" parent="1">
          <mxGeometry x="520.5" y="2030" width="115" height="40" as="geometry" />
        </mxCell>
        <mxCell id="4FcIvpIHeWygWOenw7Vw-45" value="信息保存" style="rounded=0;whiteSpace=wrap;html=1;" vertex="1" parent="1">
          <mxGeometry x="520" y="2150" width="115" height="40" as="geometry" />
        </mxCell>
      </root>
    </mxGraphModel>
  </diagram>
</mxfile>
